<?xml version="1.0" encoding="UTF-8" standalone="no"?>
<svg
   height="16"
   viewBox="-119 0 12 12.000024"
   width="16"
   version="1.1"
   id="svg95"
   sodipodi:docname="emulator.svg"
   inkscape:version="1.1.1 (3bf5ae0d25, 2021-09-20)"
   xmlns:inkscape="http://www.inkscape.org/namespaces/inkscape"
   xmlns:sodipodi="http://sodipodi.sourceforge.net/DTD/sodipodi-0.dtd"
   xmlns="http://www.w3.org/2000/svg"
   xmlns:svg="http://www.w3.org/2000/svg">
  <defs
     id="defs99" />
  <sodipodi:namedview
     id="namedview97"
     pagecolor="#ffffff"
     bordercolor="#666666"
     borderopacity="1.0"
     inkscape:pageshadow="2"
     inkscape:pageopacity="0.0"
     inkscape:pagecheckerboard="0"
     inkscape:document-units="pt"
     showgrid="false"
     showguides="false"
     width="16pt"
     units="px"
     inkscape:zoom="12.239653"
     inkscape:cx="9.3956912"
     inkscape:cy="20.547968"
     inkscape:window-width="1920"
     inkscape:window-height="1001"
     inkscape:window-x="-9"
     inkscape:window-y="-9"
     inkscape:window-maximized="1"
     inkscape:current-layer="svg95" />
  <path
     d="m -109.25,11.600029 c 0,0.220918 -0.20995,0.399995 -0.46884,0.399995 h -6.56233 c -0.25898,0 -0.46884,-0.179077 -0.46884,-0.399995 V 0.39999469 C -116.75001,0.17907749 -116.54015,0 -116.28117,0 h 6.56233 c 0.25889,0 0.46874,0.17907749 0.46874,0.39999469 z m 0,0"
     fill="#a4b0bf"
     id="path55"
     style="stroke-width:0.0253717" />
  <path
     d="M -109.2501,0.39999469 C -109.2501,0.17907749 -109.45995,0 -109.71884,0 h -0.6508 c 0.25888,0 0.46874,0.17907749 0.46874,0.39999469 l 10e-5,11.20003431 c 0,0.220918 -0.20996,0.399995 -0.46884,0.399995 h 0.6508 c 0.25889,0 0.46874,-0.179077 0.46874,-0.399995 z m 0,0"
     fill="#8499b3"
     id="path57"
     style="stroke-width:0.0253717" />
  <path
     d="m -109.2501,1.2000756 h -1.77002 c -0.0643,0 -0.12307,0.030946 -0.15182,0.080109 l -0.14055,0.2397771 c -0.0288,0.049072 -0.0875,0.080109 -0.1518,0.080109 h -3.07142 c -0.0643,0 -0.12306,-0.031037 -0.15181,-0.080109 l -0.14055,-0.2398688 c -0.0288,-0.049072 -0.0876,-0.080109 -0.15181,-0.080109 h -1.77013 v 9.6000571 h 7.49991 z m 0,0"
     fill="#778b9f"
     id="path59"
     style="stroke-width:0.0253717" />
  <path
     d="m -112.53127,11.218895 h -0.93747 c -0.11726,0 -0.21221,0.08112 -0.21221,0.181092 0,0.10007 0.0949,0.181092 0.21221,0.181092 h 0.93747 c 0.11716,0 0.21222,-0.08103 0.21222,-0.181092 0,-0.09997 -0.0951,-0.181092 -0.21222,-0.181092 z m 0,0"
     fill="#778b9f"
     id="path61"
     style="stroke-width:0.0253717" />
  <path
     d="m -112.06253,0.41894599 h -1.87495 c -0.11726,0 -0.21221,0.0811161 -0.21221,0.1810918 0,0.099976 0.095,0.1810917 0.21221,0.1810917 h 1.87495 c 0.11727,0 0.21221,-0.0811159 0.21221,-0.1810917 0,-0.099976 -0.0949,-0.1810918 -0.21221,-0.1810918 z m 0,0"
     fill="#778b9f"
     id="path63"
     style="stroke-width:0.0253717" />
  <path
     d="m -114.64064,0.41894599 h -0.46873 c -0.11727,0 -0.21222,0.0811161 -0.21222,0.1810918 0,0.099976 0.0949,0.1810917 0.21222,0.1810917 h 0.46873 c 0.11727,0 0.21222,-0.0811159 0.21222,-0.1810917 0,-0.099976 -0.0949,-0.1810918 -0.21222,-0.1810918 z m 0,0"
     fill="#f1f2f2"
     id="path65"
     style="stroke-width:0.0253717" />
  <path
     d="m -109.9009,1.1999841 h 0.6508 v 9.6000569 h -0.6508 z m 0,0"
     fill="#6a7a94"
     id="path67"
     style="stroke-width:0.0253717" />
  <path
     d="m -114.87495,3.4189521 h -0.93759 c -0.11715,0 -0.2122,0.081024 -0.2122,0.1810916 v 0.7999896 c 0,0.099976 0.0951,0.1810915 0.2122,0.1810915 0.11727,0 0.21222,-0.081116 0.21222,-0.1810915 V 3.7811357 h 0.72537 c 0.11716,0 0.21221,-0.081117 0.21221,-0.181092 0,-0.1000669 -0.0951,-0.1810916 -0.21221,-0.1810916 z m 0,0"
     fill="#fdb633"
     id="path69"
     style="stroke-width:0.0253717" />
  <path
     d="m -110.18758,3.4189521 h -0.93747 c -0.11716,0 -0.21222,0.081024 -0.21222,0.1810916 0,0.099976 0.0951,0.181092 0.21222,0.181092 h 0.72526 v 0.6188976 c 0,0.1000668 0.0949,0.1810915 0.21221,0.1810915 0.11727,0 0.21221,-0.081024 0.21221,-0.1810915 V 3.6000437 c 0,-0.1000669 -0.0949,-0.1810916 -0.21221,-0.1810916 z m 0,0"
     fill="#fdb633"
     id="path71"
     style="stroke-width:0.0253717" />
  <path
     d="m -110.18758,7.4188997 c -0.11726,0 -0.21221,0.081111 -0.21221,0.1810918 v 0.6188979 h -0.72526 c -0.11727,0 -0.21222,0.08112 -0.21222,0.1810916 0,0.1000668 0.0949,0.1810906 0.21222,0.1810906 h 0.93747 c 0.11727,0 0.21221,-0.081022 0.21221,-0.1810906 V 7.5999915 c 0,-0.099976 -0.0949,-0.1810918 -0.21221,-0.1810918 z m 0,0"
     fill="#fdb633"
     id="path73"
     style="stroke-width:0.0253717" />
  <path
     d="m -114.87506,8.2188894 h -0.72526 V 7.5999915 c 0,-0.1000689 -0.0949,-0.1810918 -0.21222,-0.1810918 -0.11715,0 -0.2122,0.081022 -0.2122,0.1810918 V 8.399981 c 0,0.1000668 0.0951,0.1810906 0.2122,0.1810906 h 0.93748 c 0.11727,0 0.21222,-0.081022 0.21222,-0.1810906 0,-0.09998 -0.0949,-0.1810916 -0.21222,-0.1810916 z m 0,0"
     fill="#fdb633"
     id="path75"
     style="stroke-width:0.0253717" />
  <g
     fill="#f1f2f2"
     id="g93"
     transform="matrix(0.02746552,0,0,0.02343755,-116.75001,0)">
    <path
       d="m 102.40234,299.47656 c -4.269528,0 -7.726559,3.45703 -7.726559,7.72266 v 17.0664 c 0,4.26954 3.457031,7.72657 7.726559,7.72657 4.26563,0 7.72266,-3.45703 7.72266,-7.72657 v -17.0664 c 0,-4.26563 -3.45703,-7.72266 -7.72266,-7.72266 z m 0,0"
       id="path77" />
    <path
       d="m 136.53516,299.47656 c -4.26563,0 -7.72657,3.45703 -7.72657,7.72266 v 17.0664 c 0,4.26954 3.46094,7.72657 7.72657,7.72657 4.26953,0 7.72656,-3.45703 7.72656,-7.72657 v -17.0664 c 0,-4.26563 -3.45703,-7.72266 -7.72656,-7.72266 z m 0,0"
       id="path79" />
    <path
       d="m 170.67187,299.47656 c -4.26953,0 -7.72656,3.45703 -7.72656,7.72266 v 17.0664 c 0,4.26954 3.45703,7.72657 7.72656,7.72657 4.26563,0 7.72657,-3.45703 7.72657,-7.72657 v -17.0664 c 0,-4.26563 -3.46094,-7.72266 -7.72657,-7.72266 z m 0,0"
       id="path81" />
    <path
       d="m 68.265625,180.00781 c -4.265625,0 -7.726563,3.46094 -7.726563,7.72656 v 136.53125 c 0,4.26954 3.460938,7.72657 7.726563,7.72657 4.269531,0 7.726563,-3.45703 7.726563,-7.72657 V 187.73437 c 0,-4.26562 -3.457032,-7.72656 -7.726563,-7.72656 z m 0,0"
       id="path83" />
    <path
       d="m 102.40234,180.00781 c -4.269528,0 -7.726559,3.46094 -7.726559,7.72656 v 85.33204 c 0,4.26953 3.457031,7.72656 7.726559,7.72656 4.26563,0 7.72266,-3.45703 7.72266,-7.72656 v -85.33203 c 0,-4.26563 -3.45703,-7.72657 -7.72266,-7.72657 z m 0,0"
       id="path85" />
    <path
       d="m 136.53516,180.00781 c -4.26563,0 -7.72657,3.46094 -7.72657,7.72656 v 85.33204 c 0,4.26953 3.46094,7.72656 7.72657,7.72656 4.26953,0 7.72656,-3.45703 7.72656,-7.72656 v -85.33203 c 0,-4.26563 -3.45703,-7.72657 -7.72656,-7.72657 z m 0,0"
       id="path87" />
    <path
       d="m 170.67187,180.00781 c -4.26953,0 -7.72656,3.46094 -7.72656,7.72656 v 85.33204 c 0,4.26953 3.45703,7.72656 7.72656,7.72656 4.26563,0 7.72657,-3.45703 7.72657,-7.72656 v -85.33203 c 0,-4.26563 -3.46094,-7.72657 -7.72657,-7.72657 z m 0,0"
       id="path89" />
    <path
       d="m 204.80469,180.00781 c -4.26953,0 -7.72657,3.46094 -7.72657,7.72656 v 136.53125 c 0,4.26954 3.45704,7.72657 7.72657,7.72657 4.26562,0 7.72656,-3.45703 7.72656,-7.72657 V 187.73437 c 0,-4.26562 -3.46094,-7.72656 -7.72656,-7.72656 z m 0,0"
       id="path91" />
  </g>
</svg>
