<?xml version="1.0" encoding="UTF-8" standalone="no"?>
<svg
   height="16"
   viewBox="-116 0 12 12"
   width="16"
   version="1.1"
   id="svg34"
   sodipodi:docname="emulator-light.svg"
   inkscape:version="1.1.1 (3bf5ae0d25, 2021-09-20)"
   xmlns:inkscape="http://www.inkscape.org/namespaces/inkscape"
   xmlns:sodipodi="http://sodipodi.sourceforge.net/DTD/sodipodi-0.dtd"
   xmlns="http://www.w3.org/2000/svg"
   xmlns:svg="http://www.w3.org/2000/svg">
  <defs
     id="defs38" />
  <sodipodi:namedview
     id="namedview36"
     pagecolor="#ffffff"
     bordercolor="#666666"
     borderopacity="1.0"
     inkscape:pageshadow="2"
     inkscape:pageopacity="0.0"
     inkscape:pagecheckerboard="0"
     inkscape:document-units="pt"
     showgrid="false"
     units="px"
     inkscape:zoom="16.22"
     inkscape:cx="-1.6646116"
     inkscape:cy="17.909988"
     inkscape:window-width="1920"
     inkscape:window-height="1001"
     inkscape:window-x="-9"
     inkscape:window-y="-9"
     inkscape:window-maximized="1"
     inkscape:current-layer="svg34" />
  <path
     d="M -106.25,10.659393 V 0.56405639 C -106.25,0.25305176 -106.53913,0 -106.89448,0 h -6.21104 C -113.46087,0 -113.75,0.25305176 -113.75,0.56405639 V 2.5421447 c 0,0.097137 0.09,0.1757812 0.20085,0.1757812 0.11088,0 0.20084,-0.078644 0.20084,-0.1757812 V 1.5163879 h 1.44964 l 0.16633,0.2911377 c 0.034,0.059601 0.10356,0.097229 0.17961,0.097229 h 3.10557 c 0.076,0 0.14561,-0.037628 0.17961,-0.097229 l 0.16632,-0.2910461 h 1.44954 v 8.9671325 h -6.69662 V 3.2453613 c 0,-0.097137 -0.0899,-0.1757812 -0.20084,-0.1757812 -0.11089,0 -0.20085,0.078644 -0.20085,0.1757812 v 8.1905827 c 0,0.311004 0.28913,0.564056 0.64459,0.564056 h 6.21093 c 0.35545,0 0.64448,-0.253052 0.64448,-0.564056 z m -1.9754,-9.494476 c -0.0761,0 -0.14561,0.037628 -0.17961,0.097137 l -0.16632,0.2911381 h -2.85723 l -0.16633,-0.2911377 c -0.0341,-0.059601 -0.10356,-0.097229 -0.17961,-0.097229 h -1.57381 V 0.56405639 c 0,-0.1171875 0.109,-0.21249389 0.2429,-0.21249389 h 6.21093 c 0.13389,0 0.24279,0.0953064 0.24279,0.21249389 V 1.164917 Z m 1.33092,10.483521 h -6.21104 c -0.13389,0 -0.24279,-0.09531 -0.24279,-0.212494 v -0.600769 h 6.69662 v 0.600769 c 0,0.117187 -0.1089,0.212494 -0.24279,0.212494 z m 0,0"
     id="path2"
     style="stroke-width:0.0250528" />
  <path
     d="m -109.55631,11.065979 h -0.88728 c -0.11088,0 -0.20084,0.07874 -0.20084,0.175781 0,0.09714 0.09,0.175782 0.20084,0.175782 h 0.88728 c 0.11088,0 0.20085,-0.07864 0.20085,-0.175782 0,-0.09705 -0.09,-0.175781 -0.20085,-0.175781 z m 0,0"
     id="path4"
     style="stroke-width:0.0250528" />
  <path
     d="m -109.11267,0.58245848 h -1.77466 c -0.11088,0 -0.20084,0.0786438 -0.20084,0.17578125 0,0.0970459 0.09,0.17578125 0.20084,0.17578125 h 1.77466 c 0.11099,0 0.20084,-0.0787353 0.20084,-0.17578125 0,-0.0971374 -0.0898,-0.17578125 -0.20084,-0.17578125 z m 0,0"
     id="path6"
     style="stroke-width:0.0250528" />
  <path
     d="m -111.55273,0.58245848 h -0.44364 c -0.11088,0 -0.20085,0.0786438 -0.20085,0.17578125 0,0.0970459 0.09,0.17578125 0.20085,0.17578125 h 0.44364 c 0.11088,0 0.20084,-0.0787353 0.20084,-0.17578125 0,-0.0971374 -0.09,-0.17578125 -0.20084,-0.17578125 z m 0,0"
     id="path8"
     style="stroke-width:0.0250528" />
  <path
     d="m -111.7745,3.4945678 h -0.88727 c -0.11099,0 -0.20085,0.078644 -0.20085,0.1757813 v 0.7765502 c 0,0.097046 0.0899,0.1757812 0.20085,0.1757812 0.11088,0 0.20084,-0.078735 0.20084,-0.1757812 v -0.600769 h 0.68643 c 0.11088,0 0.20085,-0.078735 0.20085,-0.1757812 0,-0.097138 -0.09,-0.1757813 -0.20085,-0.1757813 z m 0,0"
     id="path10"
     style="stroke-width:0.0250528" />
  <path
     d="m -107.33812,4.6226805 c 0.11099,0 0.20084,-0.078735 0.20084,-0.1757812 V 3.6703491 c 0,-0.097138 -0.0898,-0.1757813 -0.20084,-0.1757813 h -0.88728 c -0.11088,0 -0.20084,0.078644 -0.20084,0.1757813 0,0.097046 0.09,0.1757812 0.20084,0.1757812 h 0.68643 v 0.600769 c 0,0.097046 0.0899,0.1757812 0.20085,0.1757812 z m 0,0"
     id="path12"
     style="stroke-width:0.0250528" />
  <path
     d="m -108.2254,8.5054322 h 0.88728 c 0.11099,0 0.20084,-0.078735 0.20084,-0.1757813 V 7.5531005 c 0,-0.097138 -0.0898,-0.1757813 -0.20084,-0.1757813 -0.11099,0 -0.20085,0.078644 -0.20085,0.1757813 v 0.6007692 h -0.68643 c -0.11098,0 -0.20084,0.078644 -0.20084,0.1757812 0,0.097046 0.0899,0.1757813 0.20084,0.1757813 z m 0,0"
     id="path14"
     style="stroke-width:0.0250528" />
  <path
     d="m -112.86262,8.3296509 c 0,0.097137 0.0899,0.1757813 0.20085,0.1757813 h 0.88717 c 0.11098,0 0.20084,-0.078644 0.20084,-0.1757813 0,-0.097046 -0.0899,-0.1757812 -0.20084,-0.1757812 h -0.68633 V 7.5531005 c 0,-0.097138 -0.09,-0.1757813 -0.20084,-0.1757813 -0.11099,0 -0.20085,0.078644 -0.20085,0.1757813 z m 0,0"
     id="path16"
     style="stroke-width:0.0250528" />
  <path
     d="m -111.08817,7.5531005 c 0,0.097138 0.09,0.1757812 0.20084,0.1757812 0.11099,0 0.20085,-0.078644 0.20085,-0.1757812 V 7.1649169 c 0,-0.097137 -0.0899,-0.1757813 -0.20085,-0.1757813 -0.11088,0 -0.20084,0.078644 -0.20084,0.1757813 z m 0,0"
     id="path18"
     style="stroke-width:0.0250528" />
  <path
     d="m -110.20079,7.5531005 c 0,0.097138 0.09,0.1757812 0.20084,0.1757812 0.11099,0 0.20085,-0.078644 0.20085,-0.1757812 V 7.1649169 c 0,-0.097137 -0.0899,-0.1757813 -0.20085,-0.1757813 -0.11088,0 -0.20084,0.078644 -0.20084,0.1757813 z m 0,0"
     id="path20"
     style="stroke-width:0.0250528" />
  <path
     d="m -109.31341,7.5531005 c 0,0.097138 0.0898,0.1757812 0.20084,0.1757812 0.11089,0 0.20085,-0.078644 0.20085,-0.1757812 V 7.1649169 c 0,-0.097137 -0.09,-0.1757813 -0.20085,-0.1757813 -0.11099,0 -0.20084,0.078644 -0.20084,0.1757813 z m 0,0"
     id="path22"
     style="stroke-width:0.0250528" />
  <path
     d="m -111.7746,4.271118 c -0.11089,0 -0.20085,0.078735 -0.20085,0.1757813 v 3.1062012 c 0,0.097138 0.09,0.1757812 0.20085,0.1757812 0.11088,0 0.20084,-0.078644 0.20084,-0.1757812 V 4.4468993 c 0,-0.097046 -0.09,-0.1757813 -0.20084,-0.1757813 z m 0,0"
     id="path24"
     style="stroke-width:0.0250528" />
  <path
     d="m -110.88733,6.5640565 c 0.11099,0 0.20085,-0.078644 0.20085,-0.1757813 V 4.4468993 c 0,-0.097046 -0.0899,-0.1757813 -0.20085,-0.1757813 -0.11088,0 -0.20084,0.078735 -0.20084,0.1757813 v 1.9413759 c 0,0.097138 0.09,0.1757813 0.20084,0.1757813 z m 0,0"
     id="path26"
     style="stroke-width:0.0250528" />
  <path
     d="m -109.99995,6.5640565 c 0.11099,0 0.20085,-0.078644 0.20085,-0.1757813 V 4.4468993 c 0,-0.097046 -0.0899,-0.1757813 -0.20085,-0.1757813 -0.11088,0 -0.20084,0.078735 -0.20084,0.1757813 v 1.9413759 c 0,0.097138 0.09,0.1757813 0.20084,0.1757813 z m 0,0"
     id="path28"
     style="stroke-width:0.0250528" />
  <path
     d="m -109.11257,6.5640565 c 0.11089,0 0.20085,-0.078644 0.20085,-0.1757813 V 4.4468993 c 0,-0.097046 -0.09,-0.1757813 -0.20085,-0.1757813 -0.11099,0 -0.20084,0.078735 -0.20084,0.1757813 v 1.9413759 c 0,0.097138 0.0898,0.1757813 0.20084,0.1757813 z m 0,0"
     id="path30"
     style="stroke-width:0.0250528" />
  <path
     d="m -108.42614,4.4468993 v 3.1062012 c 0,0.097138 0.0899,0.1757812 0.20085,0.1757812 0.11088,0 0.20084,-0.078644 0.20084,-0.1757812 V 4.4468993 c 0,-0.097046 -0.09,-0.1757813 -0.20084,-0.1757813 -0.11099,0 -0.20085,0.078735 -0.20085,0.1757813 z m 0,0"
     id="path32"
     style="stroke-width:0.0250528" />
</svg>
