<?xml version="1.0" encoding="UTF-8" standalone="no"?>
<svg
   height="16"
   viewBox="0 0 2 2"
   width="16"
   version="1.1"
   id="svg281"
   sodipodi:docname="multiple_device_dark.svg"
   inkscape:version="1.1.1 (3bf5ae0d25, 2021-09-20)"
   xmlns:inkscape="http://www.inkscape.org/namespaces/inkscape"
   xmlns:sodipodi="http://sodipodi.sourceforge.net/DTD/sodipodi-0.dtd"
   xmlns="http://www.w3.org/2000/svg"
   xmlns:svg="http://www.w3.org/2000/svg">
  <defs
     id="defs285" />
  <sodipodi:namedview
     id="namedview283"
     pagecolor="#ffffff"
     bordercolor="#666666"
     borderopacity="1.0"
     inkscape:pageshadow="2"
     inkscape:pageopacity="0.0"
     inkscape:pagecheckerboard="0"
     showgrid="false"
     inkscape:zoom="7.1380113"
     inkscape:cx="-17.23169"
     inkscape:cy="34.533428"
     inkscape:window-width="1920"
     inkscape:window-height="1001"
     inkscape:window-x="-9"
     inkscape:window-y="-9"
     inkscape:window-maximized="1"
     inkscape:current-layer="svg281" />
  <g
     id="_06_Two_Displays"
     data-name="06 Two Displays"
     transform="matrix(0.03125,0,0,0.03123773,0,3.9269503e-4)">
    <path
       d="M 34,42.998 V 43 h 7 v -6 h -7 z"
       fill="#c2dff6"
       id="path224" />
    <path
       d="m 34,57.011 a 3,3 0 0 0 3,3 h 4 V 43 h -7 z"
       fill="#5aaae7"
       id="path226" />
    <path
       d="m 34,25 h 7 v 5.935 h -7 z"
       fill="#c2dff6"
       id="path228" />
    <path
       d="m 41,14 h -4 a 3,3 0 0 0 -3,3 v 8 h 7 z"
       fill="#5aaae7"
       id="path230" />
    <path
       d="m 34,30.935 v 0.063 6 V 37 h 7 v -6.065 z"
       fill="#5aaae7"
       id="path232" />
    <g
       fill="#165c92"
       id="g244">
      <path
         d="M 62.5,14 H 41 v 46.011 h 20 a 3,3 0 0 0 3,-3 V 13 A 0.888,0.888 0 0 0 63.964,12.821 1.5,1.5 0 0 1 62.5,14 Z"
         id="path234" />
      <path
         d="m 38,29 a 0.99,0.99 0 0 1 -1,-1 1.01,1.01 0 0 1 0.29,-0.71 1.047,1.047 0 0 1 1.42,0 A 1.033,1.033 0 0 1 39,28 1.007,1.007 0 0 1 38,29 Z"
         id="path236" />
      <path
         d="m 38,35 a 0.99,0.99 0 0 1 -1,-1 1.028,1.028 0 0 1 0.29,-0.71 1.047,1.047 0 0 1 1.42,0 A 1.033,1.033 0 0 1 39,34 0.971,0.971 0 0 1 38.71,34.7 1.019,1.019 0 0 1 38,35 Z"
         id="path238" />
      <path
         d="m 38,41 a 0.99,0.99 0 0 1 -1,-1 1.01,1.01 0 0 1 0.29,-0.71 1.047,1.047 0 0 1 1.42,0 A 1.033,1.033 0 0 1 39,40 1.007,1.007 0 0 1 38,41 Z"
         id="path240" />
      <path
         d="m 38,22 a 1,1 0 0 1 -1,-1 v -2 a 1,1 0 0 1 2,0 v 2 a 1,1 0 0 1 -1,1 z"
         id="path242" />
    </g>
    <path
       d="m 53,35 h -3 a 1,1 0 0 1 -0.857,-1.515 c 1.208,-2.012 2.586,-4.439 2.847,-5.084 a 0.5,0.5 0 0 0 -0.99,0.1 1,1 0 0 1 -2,0 2.5,2.5 0 0 1 5,0 c 0,0.26 0,0.675 -2.243,4.5 H 53 a 1,1 0 0 1 0,2 z"
       fill="#c2dff6"
       id="path246" />
    <rect
       fill="#5aaae7"
       height="5"
       rx="1"
       width="5"
       x="43"
       y="45"
       id="rect248" />
    <rect
       fill="#c2dff6"
       height="5"
       rx="1"
       width="5"
       x="49"
       y="45"
       id="rect250" />
    <rect
       fill="#5aaae7"
       height="5"
       rx="1"
       width="5"
       x="55"
       y="45"
       id="rect252" />
    <rect
       fill="#c2dff6"
       height="5"
       rx="1"
       width="5"
       x="43"
       y="51"
       id="rect254" />
    <rect
       fill="#5aaae7"
       height="5"
       rx="1"
       width="5"
       x="49"
       y="51"
       id="rect256" />
    <rect
       fill="#c2dff6"
       height="5"
       rx="1"
       width="5"
       x="55"
       y="51"
       id="rect258" />
    <path
       d="M 27,3.989 H 3 a 3,3 0 0 0 -3,3 V 51 A 0.888,0.888 0 0 0 0.036,51.179 1.5,1.5 0 0 1 1.5,50 H 27 a 3,3 0 0 0 3,-3 V 6.989 a 3,3 0 0 0 -3,-3 z"
       fill="#165c92"
       id="path260" />
    <rect
       fill="#5aaae7"
       height="6"
       rx="2"
       width="6"
       x="5"
       y="40"
       id="rect262" />
    <rect
       fill="#c2dff6"
       height="6"
       rx="2"
       width="6"
       x="12"
       y="40"
       id="rect264" />
    <rect
       fill="#5aaae7"
       height="6"
       rx="2"
       width="6"
       x="19"
       y="40"
       id="rect266" />
    <rect
       fill="#c2dff6"
       height="6"
       rx="2"
       width="6"
       x="5"
       y="33"
       id="rect268" />
    <rect
       fill="#5aaae7"
       height="6"
       rx="2"
       width="6"
       x="12"
       y="33"
       id="rect270" />
    <rect
       fill="#c2dff6"
       height="6"
       rx="2"
       width="6"
       x="19"
       y="33"
       id="rect272" />
    <path
       d="m 16,24 a 1,1 0 0 1 -1,-1 v -5 a 1,1 0 0 1 0,-2 h 1 a 1,1 0 0 1 1,1 v 6 a 1,1 0 0 1 -1,1 z"
       fill="#c2dff6"
       id="path274" />
    <path
       d="M 6,50 H 1.5 A 1.5,1.5 0 0 0 0.036,51.179 0.888,0.888 0 0 1 0,51 c 0,1.721 1.454,2.39 2.582,2.908 l 13.032,6 A 0.991,0.991 0 0 0 16.032,60 2.739,2.739 0 0 0 19,57.358 V 50 Z"
       fill="#5aaae7"
       id="path276" />
    <path
       d="m 59,14 h 3.5 A 1.5,1.5 0 0 0 63.964,12.821 0.888,0.888 0 0 1 64,13 c 0,-1.721 -1.454,-2.39 -2.582,-2.908 l -13.032,-6 A 0.991,0.991 0 0 0 47.968,4 2.739,2.739 0 0 0 45,6.642 V 14 Z"
       fill="#5aaae7"
       id="path278" />
  </g>
</svg>
